PathFileType	4	(X/Y/Z)	C:\Users\WrightLab\Desktop\Jo\P5V137.trc
DataRate	CameraRate	NumFrames	NumMarkers	Units	OrigDataRate	OrigDataStartFrame	OrigNumFrames
100.00	100.00	       11	19	mm	100.00	201	       534
Frame#	Time	Headset_Front			Headset_Back			Headset_Left			Headset_Right			Left_Shoulder			Right_Shoulder			Sternum			C7			Left Elbow			Right Elbow			Left Wrist			Right Wrist			Left ASIS			Right ASIS			S2			Left Knee			Right Knee			Left Ankle			Right Ankle			
		X1	Y1	Z1	X2	Y2	Z2	X3	Y3	Z3	X4	Y4	Z4	X5	Y5	Z5	X6	Y6	Z6	X7	Y7	Z7	X8	Y8	Z8	X9	Y9	Z9	X10	Y10	Z10	X11	Y11	Z11	X12	Y12	Z12	X13	Y13	Z13	X14	Y14	Z14	X15	Y15	Z15	X16	Y16	Z16	X17	Y17	Z17	X18	Y18	Z18	X19	Y19	Z19	

201	2.000	0.27036	1555.24683	249.44341							-19.21140	1615.88208	111.98091	43.12703	1448.37231	-67.94888	333.83871	1497.45264	229.65929	118.26116	1320.04773	139.95052	263.04565	1527.09131	-5.42513	75.89236	1182.69714	-176.08914	471.77130	1264.04089	247.72215	-5.68308	1082.32617	22.74653	293.95889	1223.33618	360.83389	58.57513	939.51630	11.44814	260.16907	929.30432	216.32463	415.20859	989.76910	-26.51523	12.45256	610.16644	215.10797	397.24420	525.05011	204.28795	201.19313	175.65962	177.11113	579.46582	137.95236	-3.51147	
202	2.010	-6.37364	1555.33142	258.29166							-25.41210	1616.30139	120.91430	37.78031	1448.33191	-60.09333	325.27936	1496.58521	238.81398	111.55666	1319.12646	148.75748	257.46402	1526.88049	2.94865	72.03452	1183.09949	-168.53766	463.06238	1263.75073	259.28751	-11.40949	1082.26440	29.41583	284.59253	1223.50391	371.37555	53.23143	940.60236	17.59089	253.02159	929.06482	224.90120	409.95621	989.90326	-17.10094	4.50336	610.43512	219.18541	390.29752	524.30524	202.97328	174.69203	166.85866	195.03513	578.81415	139.97237	-2.50416	
203	2.020	-13.15280	1555.84998	267.19058							-31.67656	1616.65674	129.78566	32.33324	1448.08752	-52.43023	318.17477	1496.49902	248.06543	105.45009	1318.98193	156.45496	251.67212	1526.48987	12.89163	67.67641	1182.84937	-160.85785	455.69272	1263.28516	270.05646	-18.03005	1081.73499	35.02843	275.64514	1224.12744	380.90848	48.16664	940.61011	25.32296	245.48112	928.49640	233.07370	403.77066	989.06714	-8.34818	-3.41849	610.05829	223.94125	384.09235	524.53815	199.94350	147.33203	158.46657	212.30833	578.26813	141.73483	-0.95977	
204	2.030	-18.93713	1555.72046	275.81119							-38.07131	1616.81055	138.56267	26.45361	1447.64954	-44.13943	311.05161	1496.34106	257.84641	97.84279	1319.08850	165.33533	245.30243	1526.26904	22.48278	62.84527	1182.92810	-153.35246	447.53201	1262.81555	280.92648	-24.25455	1082.01721	41.99915	267.14566	1223.98975	390.49869	42.12221	940.68665	32.82435	238.78017	927.62714	241.78642	398.04785	989.48621	0.60522	-9.62920	607.93640	229.09596	377.28424	523.24982	197.20883	118.79280	150.72813	227.59193	577.40594	143.39636	0.97846	
205	2.040	-26.41801	1556.48059	285.09958							-44.65644	1617.13953	147.56812	20.24189	1447.33789	-35.80379	304.01422	1495.95825	266.93015	91.48714	1318.66736	174.13014	238.99982	1526.24963	30.53946	58.01447	1182.86072	-145.82977	439.38336	1262.36719	290.91019	-30.31436	1081.46924	50.02018	259.01602	1224.24036	399.78204	36.14222	940.51544	41.42699	231.33731	927.39166	249.96091	390.85233	989.23828	9.52430	-15.28600	605.03186	234.23886	371.19952	521.93658	194.12865	90.81351	143.95686	242.52611	576.46545	145.49507	1.59336	
206	2.050	-33.24655	1556.76135	294.16104							-51.36440	1617.46875	156.61957	13.92480	1446.93188	-27.26317	296.41855	1495.91504	276.49841	84.27709	1318.42334	182.95834	232.28658	1525.49023	41.01634	52.29280	1182.87256	-137.62405	430.67969	1262.23779	301.69846	-36.97960	1080.83215	56.67693	249.95650	1224.33289	409.62216	29.61903	940.25897	50.89016	223.89305	926.86591	258.36865	383.67538	988.52313	18.54391	-20.21202	601.20111	240.31012	365.76920	520.61780	191.49005	63.48449	138.22256	255.47778	574.83887	147.32442	3.13562	
207	2.060	-40.07139	1556.98682	303.21881							-58.28509	1618.10437	165.79425	7.35164	1446.61975	-18.83899	289.00647	1495.72046	285.37009	76.82464	1318.40503	191.98029	225.52098	1524.83447	49.90852	46.61980	1182.64404	-129.92931	423.13010	1261.37512	311.35803	-43.77582	1080.49548	64.35572	241.38226	1224.67395	418.75613	23.11251	940.16272	59.52303	216.47513	926.76575	267.05106	376.15744	988.28265	26.58683	-24.12089	596.64630	246.44051	360.49588	520.33362	191.72722	37.68524	133.69125	266.80768	573.23395	149.21681	4.34988	
208	2.070	-47.61746	1557.39880	312.53220							-65.43980	1618.66992	175.08620	0.45507	1445.86230	-10.20230	281.15604	1495.72083	294.91364	69.38880	1318.52771	200.79436	218.46245	1525.03833	58.64384	40.61114	1182.44421	-121.64216	414.32428	1260.78003	320.77368	-50.87286	1080.15405	72.43246	233.04909	1224.56311	427.93805	15.91654	939.69250	69.77586	209.01187	926.44781	275.49146	367.81534	988.20465	34.66581	-28.21850	591.95630	251.67067	354.33295	522.02148	196.77872	16.07707	129.66287	277.32047	570.97534	151.39081	5.35447	
209	2.080	-53.96457	1557.26782	321.35101							-72.58249	1618.99670	184.32199	-6.51733	1445.50403	-1.66257	274.37375	1495.22681	303.83899	62.72033	1317.93677	209.94617	210.85275	1524.40051	68.11807	34.08037	1182.24573	-113.10114	406.57410	1259.93335	329.55823	-58.46910	1079.60608	79.99637	224.85019	1224.23315	437.31525	8.98408	939.79236	79.89579	201.47794	926.22693	284.53152	359.43073	988.03119	42.78757	-33.47491	587.41986	256.70761	349.26614	522.79633	201.36066	-3.76744	125.57615	286.17368	568.75372	154.47842	6.40708	
210	2.090	-60.76871	1557.11609	330.38177							-79.79233	1619.19495	193.66585	-13.83343	1445.13916	7.33797	266.76843	1495.01343	313.08728	55.36056	1317.73425	219.29994	203.48840	1524.13452	76.59866	27.15761	1182.12500	-104.52212	398.12439	1259.25073	338.77606	-65.91254	1079.43555	87.64409	216.26071	1224.50952	445.85510	1.27100	939.56476	89.97736	193.33432	926.21722	293.70236	350.84662	987.33588	51.06096	-40.19426	582.98358	260.58228	344.84964	522.00946	206.13184	-21.17214	122.73244	293.72247	566.19977	156.88736	8.45333	
211	2.100	-68.61919	1557.46497	339.89697							-87.01519	1619.09314	202.86591	-21.33203	1444.41248	16.38899	259.22571	1494.61023	322.29788	47.63475	1317.67407	228.63614	195.96442	1523.05115	86.05989	19.89490	1181.80530	-96.06628	390.47092	1258.52930	346.94785	-73.75516	1078.88928	95.46272	207.61301	1224.46460	454.55817	-6.43148	939.55707	101.15858	185.15520	926.86206	303.02164	341.67654	987.27759	59.17671	-47.99533	579.69910	265.73703	340.45068	520.78497	210.32922	-36.09232	119.72878	299.40750	563.07062	160.13438	9.26162	
